ok_symbol coordinate motion generated from LLM joint_angles
version=1
nRows=45
nColumns=29
inDegrees=yes
endheader
time	elbow_flexion	pro_sup	rotaxis_auxprfem_r3	deviation	auxprrud_auxdrfem_r3	auxdrfem_auxdrrud_r1	MCP2_lateral	MCP2_flex	PIP_flex	DIP_flex	MCP2M_lateral	MCP2M_flex	MPIP_flex	MDIP_flex	RCP2M_lateral	RCP2M_flex	RPIP_flex	RDIP_flex	LCP2M_lateral	LCP2M_flex	LPIP_flex	LDIP_flex	thumb_abd	thumb_flex	TCP2M_lateral	TCP2M_flex	TCP2M2_flex	flexion
0.666667	0.000000	0.000000	0.000000	0.000000	0.000000	0.000000	0.000000	38.971143	38.971143	38.971143	0.000000	0.000000	0.000000	0.000000	0.000000	0.000000	0.000000	0.000000	0.000000	0.000000	0.000000	0.000000	0.000000	38.971143	0.000000	8.660254	8.660254	0.000000
0.673333	0.000000	0.000000	0.000000	0.000000	0.000000	0.000000	0.000000	38.491392	38.491392	38.491392	0.000000	0.000000	0.000000	0.000000	0.000000	0.000000	0.000000	0.000000	0.000000	0.000000	0.000000	0.000000	0.000000	38.491392	0.000000	8.553643	8.553643	0.000000
0.680000	0.000000	0.000000	0.000000	0.000000	0.000000	0.000000	0.000000	37.994757	37.994757	37.994757	0.000000	0.000000	0.000000	0.000000	0.000000	0.000000	0.000000	0.000000	0.000000	0.000000	0.000000	0.000000	0.000000	37.994757	0.000000	8.443279	8.443279	0.000000
0.686667	0.000000	0.000000	0.000000	0.000000	0.000000	0.000000	0.000000	37.481456	37.481456	37.481456	0.000000	0.000000	0.000000	0.000000	0.000000	0.000000	0.000000	0.000000	0.000000	0.000000	0.000000	0.000000	0.000000	37.481456	0.000000	8.329212	8.329212	0.000000
0.693333	0.000000	0.000000	0.000000	0.000000	0.000000	0.000000	0.000000	36.951714	36.951714	36.951714	0.000000	0.000000	0.000000	0.000000	0.000000	0.000000	0.000000	0.000000	0.000000	0.000000	0.000000	0.000000	0.000000	36.951714	0.000000	8.211492	8.211492	0.000000
0.700000	0.000000	0.000000	0.000000	0.000000	0.000000	0.000000	0.000000	36.405765	36.405765	36.405765	0.000000	0.000000	0.000000	0.000000	0.000000	0.000000	0.000000	0.000000	0.000000	0.000000	0.000000	0.000000	0.000000	36.405765	0.000000	8.090170	8.090170	0.000000
0.706667	0.000000	0.000000	0.000000	0.000000	0.000000	0.000000	0.000000	35.843846	35.843846	35.843846	0.000000	0.000000	0.000000	0.000000	0.000000	0.000000	0.000000	0.000000	0.000000	0.000000	0.000000	0.000000	0.000000	35.843846	0.000000	7.965299	7.965299	0.000000
0.713333	0.000000	0.000000	0.000000	0.000000	0.000000	0.000000	0.000000	35.266206	35.266206	35.266206	0.000000	0.000000	0.000000	0.000000	0.000000	0.000000	0.000000	0.000000	0.000000	0.000000	0.000000	0.000000	0.000000	35.266206	0.000000	7.836935	7.836935	0.000000
0.720000	0.000000	0.000000	0.000000	0.000000	0.000000	0.000000	0.000000	34.673096	34.673096	34.673096	0.000000	0.000000	0.000000	0.000000	0.000000	0.000000	0.000000	0.000000	0.000000	0.000000	0.000000	0.000000	0.000000	34.673096	0.000000	7.705132	7.705132	0.000000
0.726667	0.000000	0.000000	0.000000	0.000000	0.000000	0.000000	0.000000	34.064778	34.064778	34.064778	0.000000	0.000000	0.000000	0.000000	0.000000	0.000000	0.000000	0.000000	0.000000	0.000000	0.000000	0.000000	0.000000	34.064778	0.000000	7.569951	7.569951	0.000000
0.733333	0.000000	0.000000	0.000000	0.000000	0.000000	0.000000	0.000000	33.441517	33.441517	33.441517	0.000000	0.000000	0.000000	0.000000	0.000000	0.000000	0.000000	0.000000	0.000000	0.000000	0.000000	0.000000	0.000000	33.441517	0.000000	7.431448	7.431448	0.000000
0.740000	0.000000	0.000000	0.000000	0.000000	0.000000	0.000000	0.000000	32.803588	32.803588	32.803588	0.000000	0.000000	0.000000	0.000000	0.000000	0.000000	0.000000	0.000000	0.000000	0.000000	0.000000	0.000000	0.000000	32.803588	0.000000	7.289686	7.289686	0.000000
0.746667	0.000000	0.000000	0.000000	0.000000	0.000000	0.000000	0.000000	32.151271	32.151271	32.151271	0.000000	0.000000	0.000000	0.000000	0.000000	0.000000	0.000000	0.000000	0.000000	0.000000	0.000000	0.000000	0.000000	32.151271	0.000000	7.144727	7.144727	0.000000
0.753333	0.000000	0.000000	0.000000	0.000000	0.000000	0.000000	0.000000	31.484850	31.484850	31.484850	0.000000	0.000000	0.000000	0.000000	0.000000	0.000000	0.000000	0.000000	0.000000	0.000000	0.000000	0.000000	0.000000	31.484850	0.000000	6.996633	6.996633	0.000000
0.760000	0.000000	0.000000	0.000000	0.000000	0.000000	0.000000	0.000000	30.804620	30.804620	30.804620	0.000000	0.000000	0.000000	0.000000	0.000000	0.000000	0.000000	0.000000	0.000000	0.000000	0.000000	0.000000	0.000000	30.804620	0.000000	6.845471	6.845471	0.000000
0.766667	0.000000	0.000000	0.000000	0.000000	0.000000	0.000000	0.000000	30.110877	30.110877	30.110877	0.000000	0.000000	0.000000	0.000000	0.000000	0.000000	0.000000	0.000000	0.000000	0.000000	0.000000	0.000000	0.000000	30.110877	0.000000	6.691306	6.691306	0.000000
0.773333	0.000000	0.000000	0.000000	0.000000	0.000000	0.000000	0.000000	29.403927	29.403927	29.403927	0.000000	0.000000	0.000000	0.000000	0.000000	0.000000	0.000000	0.000000	0.000000	0.000000	0.000000	0.000000	0.000000	29.403927	0.000000	6.534206	6.534206	0.000000
0.780000	0.000000	0.000000	0.000000	0.000000	0.000000	0.000000	0.000000	28.684080	28.684080	28.684080	0.000000	0.000000	0.000000	0.000000	0.000000	0.000000	0.000000	0.000000	0.000000	0.000000	0.000000	0.000000	0.000000	28.684080	0.000000	6.374240	6.374240	0.000000
0.786667	0.000000	0.000000	0.000000	0.000000	0.000000	0.000000	0.000000	27.951650	27.951650	27.951650	0.000000	0.000000	0.000000	0.000000	0.000000	0.000000	0.000000	0.000000	0.000000	0.000000	0.000000	0.000000	0.000000	27.951650	0.000000	6.211478	6.211478	0.000000
0.793333	0.000000	0.000000	0.000000	0.000000	0.000000	0.000000	0.000000	27.206960	27.206960	27.206960	0.000000	0.000000	0.000000	0.000000	0.000000	0.000000	0.000000	0.000000	0.000000	0.000000	0.000000	0.000000	0.000000	27.206960	0.000000	6.045991	6.045991	0.000000
0.800000	0.000000	0.000000	0.000000	0.000000	0.000000	0.000000	0.000000	26.450336	26.450336	26.450336	0.000000	0.000000	0.000000	0.000000	0.000000	0.000000	0.000000	0.000000	0.000000	0.000000	0.000000	0.000000	0.000000	26.450336	0.000000	5.877853	5.877853	0.000000
0.806667	0.000000	0.000000	0.000000	0.000000	0.000000	0.000000	0.000000	25.682111	25.682111	25.682111	0.000000	0.000000	0.000000	0.000000	0.000000	0.000000	0.000000	0.000000	0.000000	0.000000	0.000000	0.000000	0.000000	25.682111	0.000000	5.707136	5.707136	0.000000
0.813333	0.000000	0.000000	0.000000	0.000000	0.000000	0.000000	0.000000	24.902620	24.902620	24.902620	0.000000	0.000000	0.000000	0.000000	0.000000	0.000000	0.000000	0.000000	0.000000	0.000000	0.000000	0.000000	0.000000	24.902620	0.000000	5.533915	5.533915	0.000000
0.820000	0.000000	0.000000	0.000000	0.000000	0.000000	0.000000	0.000000	24.112206	24.112206	24.112206	0.000000	0.000000	0.000000	0.000000	0.000000	0.000000	0.000000	0.000000	0.000000	0.000000	0.000000	0.000000	0.000000	24.112206	0.000000	5.358268	5.358268	0.000000
0.826667	0.000000	0.000000	0.000000	0.000000	0.000000	0.000000	0.000000	23.311215	23.311215	23.311215	0.000000	0.000000	0.000000	0.000000	0.000000	0.000000	0.000000	0.000000	0.000000	0.000000	0.000000	0.000000	0.000000	23.311215	0.000000	5.180270	5.180270	0.000000
0.833333	0.000000	0.000000	0.000000	0.000000	0.000000	0.000000	0.000000	22.500000	22.500000	22.500000	0.000000	0.000000	0.000000	0.000000	0.000000	0.000000	0.000000	0.000000	0.000000	0.000000	0.000000	0.000000	0.000000	22.500000	0.000000	5.000000	5.000000	0.000000
0.840000	0.000000	0.000000	0.000000	0.000000	0.000000	0.000000	0.000000	21.678915	21.678915	21.678915	0.000000	0.000000	0.000000	0.000000	0.000000	0.000000	0.000000	0.000000	0.000000	0.000000	0.000000	0.000000	0.000000	21.678915	0.000000	4.817537	4.817537	0.000000
0.846667	0.000000	0.000000	0.000000	0.000000	0.000000	0.000000	0.000000	20.848322	20.848322	20.848322	0.000000	0.000000	0.000000	0.000000	0.000000	0.000000	0.000000	0.000000	0.000000	0.000000	0.000000	0.000000	0.000000	20.848322	0.000000	4.632960	4.632960	0.000000
0.853333	0.000000	0.000000	0.000000	0.000000	0.000000	0.000000	0.000000	20.008583	20.008583	20.008583	0.000000	0.000000	0.000000	0.000000	0.000000	0.000000	0.000000	0.000000	0.000000	0.000000	0.000000	0.000000	0.000000	20.008583	0.000000	4.446352	4.446352	0.000000
0.860000	0.000000	0.000000	0.000000	0.000000	0.000000	0.000000	0.000000	19.160068	19.160068	19.160068	0.000000	0.000000	0.000000	0.000000	0.000000	0.000000	0.000000	0.000000	0.000000	0.000000	0.000000	0.000000	0.000000	19.160068	0.000000	4.257793	4.257793	0.000000
0.866667	0.000000	0.000000	0.000000	0.000000	0.000000	0.000000	0.000000	18.303149	18.303149	18.303149	0.000000	0.000000	0.000000	0.000000	0.000000	0.000000	0.000000	0.000000	0.000000	0.000000	0.000000	0.000000	0.000000	18.303149	0.000000	4.067366	4.067366	0.000000
0.873333	0.000000	0.000000	0.000000	0.000000	0.000000	0.000000	0.000000	17.438201	17.438201	17.438201	0.000000	0.000000	0.000000	0.000000	0.000000	0.000000	0.000000	0.000000	0.000000	0.000000	0.000000	0.000000	0.000000	17.438201	0.000000	3.875156	3.875156	0.000000
0.880000	0.000000	0.000000	0.000000	0.000000	0.000000	0.000000	0.000000	16.565605	16.565605	16.565605	0.000000	0.000000	0.000000	0.000000	0.000000	0.000000	0.000000	0.000000	0.000000	0.000000	0.000000	0.000000	0.000000	16.565605	0.000000	3.681246	3.681246	0.000000
0.886667	0.000000	0.000000	0.000000	0.000000	0.000000	0.000000	0.000000	15.685742	15.685742	15.685742	0.000000	0.000000	0.000000	0.000000	0.000000	0.000000	0.000000	0.000000	0.000000	0.000000	0.000000	0.000000	0.000000	15.685742	0.000000	3.485720	3.485720	0.000000
0.893333	0.000000	0.000000	0.000000	0.000000	0.000000	0.000000	0.000000	14.798999	14.798999	14.798999	0.000000	0.000000	0.000000	0.000000	0.000000	0.000000	0.000000	0.000000	0.000000	0.000000	0.000000	0.000000	0.000000	14.798999	0.000000	3.288666	3.288666	0.000000
0.900000	0.000000	0.000000	0.000000	0.000000	0.000000	0.000000	0.000000	13.905765	13.905765	13.905765	0.000000	0.000000	0.000000	0.000000	0.000000	0.000000	0.000000	0.000000	0.000000	0.000000	0.000000	0.000000	0.000000	13.905765	0.000000	3.090170	3.090170	0.000000
0.906667	0.000000	0.000000	0.000000	0.000000	0.000000	0.000000	0.000000	13.006431	13.006431	13.006431	0.000000	0.000000	0.000000	0.000000	0.000000	0.000000	0.000000	0.000000	0.000000	0.000000	0.000000	0.000000	0.000000	13.006431	0.000000	2.890318	2.890318	0.000000
0.913333	0.000000	0.000000	0.000000	0.000000	0.000000	0.000000	0.000000	12.101392	12.101392	12.101392	0.000000	0.000000	0.000000	0.000000	0.000000	0.000000	0.000000	0.000000	0.000000	0.000000	0.000000	0.000000	0.000000	12.101392	0.000000	2.689198	2.689198	0.000000
0.920000	0.000000	0.000000	0.000000	0.000000	0.000000	0.000000	0.000000	11.191045	11.191045	11.191045	0.000000	0.000000	0.000000	0.000000	0.000000	0.000000	0.000000	0.000000	0.000000	0.000000	0.000000	0.000000	0.000000	11.191045	0.000000	2.486899	2.486899	0.000000
0.926667	0.000000	0.000000	0.000000	0.000000	0.000000	0.000000	0.000000	10.275789	10.275789	10.275789	0.000000	0.000000	0.000000	0.000000	0.000000	0.000000	0.000000	0.000000	0.000000	0.000000	0.000000	0.000000	0.000000	10.275789	0.000000	2.283509	2.283509	0.000000
0.933333	0.000000	0.000000	0.000000	0.000000	0.000000	0.000000	0.000000	9.356026	9.356026	9.356026	0.000000	0.000000	0.000000	0.000000	0.000000	0.000000	0.000000	0.000000	0.000000	0.000000	0.000000	0.000000	0.000000	9.356026	0.000000	2.079117	2.079117	0.000000
0.940000	0.000000	0.000000	0.000000	0.000000	0.000000	0.000000	0.000000	8.432159	8.432159	8.432159	0.000000	0.000000	0.000000	0.000000	0.000000	0.000000	0.000000	0.000000	0.000000	0.000000	0.000000	0.000000	0.000000	8.432159	0.000000	1.873813	1.873813	0.000000
0.946667	0.000000	0.000000	0.000000	0.000000	0.000000	0.000000	0.000000	7.504594	7.504594	7.504594	0.000000	0.000000	0.000000	0.000000	0.000000	0.000000	0.000000	0.000000	0.000000	0.000000	0.000000	0.000000	0.000000	7.504594	0.000000	1.667687	1.667687	0.000000
0.953333	0.000000	0.000000	0.000000	0.000000	0.000000	0.000000	0.000000	6.573736	6.573736	6.573736	0.000000	0.000000	0.000000	0.000000	0.000000	0.000000	0.000000	0.000000	0.000000	0.000000	0.000000	0.000000	0.000000	6.573736	0.000000	1.460830	1.460830	0.000000
0.960000	0.000000	0.000000	0.000000	0.000000	0.000000	0.000000	0.000000	5.639996	5.639996	5.639996	0.000000	0.000000	0.000000	0.000000	0.000000	0.000000	0.000000	0.000000	0.000000	0.000000	0.000000	0.000000	0.000000	5.639996	0.000000	1.253332	1.253332	0.000000
